STARTFONT 2.1
COMMENT $XConsortium: luBS19.bdf,v 1.4 94/04/02 16:23:15 gildea Exp $
COMMENT  (c) Copyright Bigelow & Holmes 1986, 1985. Lucida is a registered
COMMENT  trademark of Bigelow & Holmes. See LEGAL NOTICE file for terms 
COMMENT  of the license. 
COMMENT  
COMMENT  Translation to ISO8859-2 by Cub Soft;  Petr.Kolar@vslib.cz
COMMENT  
FONT -B&H-Lucida-Bold-R-Normal-Sans-26-190-100-100-P-166-ISO8859-2
SIZE 19 100 100
FONTBOUNDINGBOX 51 29 -17 -5
STARTPROPERTIES 20
COMMENT Begin LogicalFontDescription
FONTNAME_REGISTRY ""
FOUNDRY "B&H"
FAMILY_NAME "Lucida"
WEIGHT_NAME "Bold"
SLANT "R"
SETWIDTH_NAME "Normal"
ADD_STYLE_NAME "Sans"
PIXEL_SIZE 26
POINT_SIZE 190
RESOLUTION_X 100
RESOLUTION_Y 100
SPACING "P"
AVERAGE_WIDTH "166"
CHARSET_REGISTRY "ISO8859"
CHARSET_ENCODING "2"
COMMENT END LogicalFontDescription
COPYRIGHT "Copyright Bigelow & Holmes 1986, 1985., Copyright 1996 Cub Soft"
FONT_ASCENT 24
FONT_DESCENT 6
DEFAULT_CHAR 0
FACE_NAME "Lucida Sans Bold"
ENDPROPERTIES
CHARS 191
STARTCHAR space
ENCODING 32
SWIDTH 343 0
DWIDTH 9 0
BBX 1 1 0 0
BITMAP
00
ENDCHAR
STARTCHAR exclam
ENCODING 33
SWIDTH 265 0
DWIDTH 9 0
BBX 5 19 2 0
BITMAP
f8
f8
f8
f8
f8
f8
f8
f8
f8
70
70
70
70
00
00
00
f8
f8
f8
ENDCHAR
STARTCHAR quotedbl
ENCODING 34
SWIDTH 530 0
DWIDTH 14 0
BBX 12 9 1 11
BITMAP
f9f0
f9f0
f9f0
f9f0
f9f0
70e0
70e0
70e0
70e0
ENDCHAR
STARTCHAR numbersign
ENCODING 35
SWIDTH 687 0
DWIDTH 18 0
BBX 16 19 1 0
BITMAP
038c
030c
0318
0318
0618
3fff
7fff
0630
0c30
0c30
0c60
fffe
fffc
1860
18c0
18c0
30c0
30c0
31c0
ENDCHAR
STARTCHAR dollar
ENCODING 36
SWIDTH 687 0
DWIDTH 18 0
BBX 13 25 2 -3
BITMAP
0700
0700
0700
1ff0
3ff0
7ff0
7b10
7b00
7b00
7f00
7f00
3f80
1fe0
07f0
07f0
07f8
0678
0678
c678
fff0
fff0
7fc0
0700
0700
0700
ENDCHAR
STARTCHAR percent
ENCODING 37
SWIDTH 898 0
DWIDTH 23 0
BBX 22 19 1 0
BITMAP
3e00f0
7f01e0
7f01c0
e78380
e38780
e38f00
e79e00
7f1c00
7f3c00
3e7800
00f1f0
00e3f8
01e7fc
03c71c
07871c
07071c
0f07fc
1e03f8
3c01f0
ENDCHAR
STARTCHAR ampersand
ENCODING 38
SWIDTH 792 0
DWIDTH 21 0
BBX 19 19 1 0
BITMAP
03f000
0ffc00
1ffe00
1f1e00
1f1e00
1fbe00
0ffc00
07f000
1fe1e0
3ff1e0
7df1e0
f9f9c0
f8ffc0
f8ff80
fc7f80
7c3f00
7fff00
3fff80
0fc7c0
ENDCHAR
STARTCHAR apostrophe
ENCODING 39
SWIDTH 265 0
DWIDTH 7 0
BBX 5 9 1 11
BITMAP
f8
f8
f8
f8
f8
38
30
f0
c0
ENDCHAR
STARTCHAR parenleft
ENCODING 40
SWIDTH 386 0
DWIDTH 10 0
BBX 8 25 1 -5
BITMAP
01
07
0f
1f
1e
3c
7c
7c
78
f8
f8
f8
f8
f8
f8
f8
78
7c
7c
3c
1e
1f
0f
07
01
ENDCHAR
STARTCHAR parenright
ENCODING 41
SWIDTH 386 0
DWIDTH 10 0
BBX 8 25 1 -5
BITMAP
80
e0
f0
f8
78
3c
3e
3e
1e
1f
1f
1f
1f
1f
1f
1f
1e
3e
3e
3c
78
f8
f0
e0
80
ENDCHAR
STARTCHAR asterisk
ENCODING 42
SWIDTH 464 0
DWIDTH 12 0
BBX 10 10 1 9
BITMAP
1e00
0c00
4c80
7f80
f3c0
0000
3f00
7780
3300
1200
ENDCHAR
STARTCHAR plus
ENCODING 43
SWIDTH 687 0
DWIDTH 18 0
BBX 15 16 1 0
BITMAP
0380
0380
0380
0380
0380
0380
fffe
fffe
fffe
0380
0380
0380
0380
0380
0380
0380
ENDCHAR
STARTCHAR comma
ENCODING 44
SWIDTH 343 0
DWIDTH 9 0
BBX 5 9 2 -4
BITMAP
f8
f8
f8
f8
f8
38
70
f0
c0
ENDCHAR
STARTCHAR minus
ENCODING 45
SWIDTH 687 0
DWIDTH 18 0
BBX 15 3 1 6
BITMAP
fffe
fffe
fffe
ENDCHAR
STARTCHAR period
ENCODING 46
SWIDTH 343 0
DWIDTH 9 0
BBX 5 5 2 0
BITMAP
f8
f8
f8
f8
f8
ENDCHAR
STARTCHAR slash
ENCODING 47
SWIDTH 596 0
DWIDTH 15 0
BBX 15 24 0 -4
BITMAP
001e
001c
003c
0038
0078
0070
00f0
00e0
00e0
01c0
01c0
0380
0380
0700
0700
0e00
0e00
1e00
1c00
3c00
3800
7800
7000
f000
ENDCHAR
STARTCHAR zero
ENCODING 48
SWIDTH 687 0
DWIDTH 18 0
BBX 16 19 1 0
BITMAP
07e0
1ff8
3ffc
3c3c
7c3e
781e
f81f
f81f
f81f
f81f
f81f
f81f
f81f
781e
7c3e
3c3c
3ffc
1ff8
07e0
ENDCHAR
STARTCHAR one
ENCODING 49
SWIDTH 687 0
DWIDTH 18 0
BBX 8 19 4 0
BITMAP
ff
ff
ff
1f
1f
1f
1f
1f
1f
1f
1f
1f
1f
1f
1f
1f
1f
1f
1f
ENDCHAR
STARTCHAR two
ENCODING 50
SWIDTH 687 0
DWIDTH 18 0
BBX 14 19 2 0
BITMAP
3fc0
7ff0
7ff8
40fc
007c
007c
007c
00fc
00f8
01f0
03e0
07c0
0f80
3e00
7c00
fc00
fffc
fffc
fffc
ENDCHAR
STARTCHAR three
ENCODING 51
SWIDTH 687 0
DWIDTH 18 0
BBX 14 19 2 0
BITMAP
3fc0
fff0
fff0
c1f8
00f8
00f8
00f8
01f0
3fc0
3fe0
3ff0
01f8
00fc
007c
007c
c0fc
fff8
fff0
7fc0
ENDCHAR
STARTCHAR four
ENCODING 52
SWIDTH 687 0
DWIDTH 18 0
BBX 16 19 1 0
BITMAP
007c
00fc
01fc
03fc
07fc
0f7c
1e7c
3e7c
3c7c
787c
f07c
ffff
ffff
ffff
007c
007c
007c
007c
007c
ENDCHAR
STARTCHAR five
ENCODING 53
SWIDTH 687 0
DWIDTH 18 0
BBX 13 19 3 0
BITMAP
fff8
fff8
fff8
e000
e000
e000
ff00
ffc0
ffe0
07f0
01f8
00f8
00f8
00f8
00f8
c1f0
fff0
ffe0
7f80
ENDCHAR
STARTCHAR six
ENCODING 54
SWIDTH 687 0
DWIDTH 18 0
BBX 16 19 1 0
BITMAP
03fc
0ffe
1ffe
3f06
7e00
7c00
f800
f9f0
fffc
fffe
fc3f
f81f
f81f
f81f
781f
7c3e
3ffe
1ffc
07f0
ENDCHAR
STARTCHAR seven
ENCODING 55
SWIDTH 687 0
DWIDTH 18 0
BBX 14 19 3 0
BITMAP
fffc
fffc
fffc
003c
0078
00f0
01f0
01e0
03c0
0780
0f80
0f00
1f00
1e00
3e00
3e00
7c00
7c00
7c00
ENDCHAR
STARTCHAR eight
ENCODING 56
SWIDTH 687 0
DWIDTH 18 0
BBX 15 19 1 0
BITMAP
0fe0
1ff8
3ffc
7c7c
783c
783c
7e38
3ff8
1fe0
1ff8
3dfc
787c
f83e
f81e
f81e
fc3e
7ffc
3ff8
0fe0
ENDCHAR
STARTCHAR nine
ENCODING 57
SWIDTH 687 0
DWIDTH 18 0
BBX 16 19 1 0
BITMAP
07e0
1ff8
7ffc
7c3e
f81e
f81f
f81f
f81f
fc3f
7fff
3fff
0f9f
001f
003e
007e
60fc
7ff8
7ff0
3fc0
ENDCHAR
STARTCHAR colon
ENCODING 58
SWIDTH 343 0
DWIDTH 9 0
BBX 5 14 2 0
BITMAP
f8
f8
f8
f8
f8
00
00
00
00
f8
f8
f8
f8
f8
ENDCHAR
STARTCHAR semicolon
ENCODING 59
SWIDTH 343 0
DWIDTH 9 0
BBX 5 18 2 -4
BITMAP
f8
f8
f8
f8
f8
00
00
00
00
f8
f8
f8
f8
f8
38
70
f0
c0
ENDCHAR
STARTCHAR less
ENCODING 60
SWIDTH 687 0
DWIDTH 18 0
BBX 15 16 1 0
BITMAP
0002
000e
003e
00fe
01f8
07e0
1f80
fe00
7e00
1f80
07e0
01f8
00fe
003e
000e
0002
ENDCHAR
STARTCHAR equal
ENCODING 61
SWIDTH 687 0
DWIDTH 18 0
BBX 15 10 1 2
BITMAP
fffe
fffe
fffe
0000
0000
0000
0000
fffe
fffe
fffe
ENDCHAR
STARTCHAR greater
ENCODING 62
SWIDTH 687 0
DWIDTH 18 0
BBX 15 16 1 0
BITMAP
8000
e000
f800
fe00
3f00
0fc0
03f0
00fc
00fe
03f0
0fc0
3f00
fe00
f800
e000
8000
ENDCHAR
STARTCHAR question
ENCODING 63
SWIDTH 572 0
DWIDTH 15 0
BBX 13 19 1 0
BITMAP
7fc0
fff0
fff8
c1f8
00f8
00f8
00f0
01e0
03c0
0780
0f80
0f00
1f00
0000
0000
0000
1f00
1f00
1f00
ENDCHAR
STARTCHAR at
ENCODING 64
SWIDTH 833 0
DWIDTH 22 0
BBX 20 19 3 0
BITMAP
00fe00
03ff80
0783c0
1e00e0
180060
307e70
71fc30
638c30
e70c30
c61c30
ce3870
ce7860
cfd8c0
cf9f80
670f00
700000
381000
1ff000
07e000
ENDCHAR
STARTCHAR A
ENCODING 65
SWIDTH 773 0
DWIDTH 20 0
BBX 19 19 1 0
BITMAP
01f000
01f800
03f800
03f800
07fc00
077c00
077e00
0f3e00
0e3e00
0e3f00
1c1f00
1fff00
3fff80
3fff80
380fc0
7807c0
7007c0
7003e0
e003e0
ENDCHAR
STARTCHAR B
ENCODING 66
SWIDTH 669 0
DWIDTH 17 0
BBX 15 19 2 0
BITMAP
ffe0
fff8
fffc
f8fc
f87c
f87c
f878
f8f0
ffe0
ffe0
fff8
f8fc
f83e
f83e
f83e
f87e
fffc
fffc
fff0
ENDCHAR
STARTCHAR C
ENCODING 67
SWIDTH 726 0
DWIDTH 19 0
BBX 17 19 1 0
BITMAP
01ff00
0fff80
1fff80
3f0180
7e0000
7c0000
fc0000
f80000
f80000
f80000
f80000
f80000
fc0000
7c0000
7e0000
3f8180
1fff80
0fff80
03fe00
ENDCHAR
STARTCHAR D
ENCODING 68
SWIDTH 819 0
DWIDTH 21 0
BBX 18 19 2 0
BITMAP
fff800
fffe00
ffff00
f83f80
f81f80
f80f80
f807c0
f807c0
f807c0
f807c0
f807c0
f807c0
f807c0
f80f80
f80f80
f83f00
ffff00
fffc00
fff000
ENDCHAR
STARTCHAR E
ENCODING 69
SWIDTH 645 0
DWIDTH 17 0
BBX 13 19 2 0
BITMAP
fff0
fff0
fff0
f800
f800
f800
f800
f800
ffe0
ffe0
ffe0
f800
f800
f800
f800
f800
fff8
fff8
fff8
ENDCHAR
STARTCHAR F
ENCODING 70
SWIDTH 602 0
DWIDTH 16 0
BBX 13 19 2 0
BITMAP
fff8
fff8
fff8
f800
f800
f800
f800
f800
fff0
fff0
fff0
f800
f800
f800
f800
f800
f800
f800
f800
ENDCHAR
STARTCHAR G
ENCODING 71
SWIDTH 759 0
DWIDTH 20 0
BBX 17 19 1 0
BITMAP
01ff80
0fff80
1fff80
3f0180
7e0000
7c0000
fc0000
f80000
f80000
f80000
f80f80
f80f80
f80f80
7c0f80
7e0f80
3f8f80
1fff80
0fff80
03ff00
ENDCHAR
STARTCHAR H
ENCODING 72
SWIDTH 813 0
DWIDTH 21 0
BBX 17 19 2 0
BITMAP
f80f80
f80f80
f80f80
f80f80
f80f80
f80f80
f80f80
f80f80
ffff80
ffff80
ffff80
f80f80
f80f80
f80f80
f80f80
f80f80
f80f80
f80f80
f80f80
ENDCHAR
STARTCHAR I
ENCODING 73
SWIDTH 361 0
DWIDTH 9 0
BBX 5 19 2 0
BITMAP
f8
f8
f8
f8
f8
f8
f8
f8
f8
f8
f8
f8
f8
f8
f8
f8
f8
f8
f8
ENDCHAR
STARTCHAR J
ENCODING 74
SWIDTH 501 0
DWIDTH 13 0
BBX 11 23 0 -4
BITMAP
03e0
03e0
03e0
03e0
03e0
03e0
03e0
03e0
03e0
03e0
03e0
03e0
03e0
03e0
03e0
03e0
03e0
03e0
03e0
87e0
ffc0
ff80
7f00
ENDCHAR
STARTCHAR K
ENCODING 75
SWIDTH 753 0
DWIDTH 20 0
BBX 17 19 2 0
BITMAP
f81e00
f81c00
f83c00
f87800
f8f000
f8e000
f9e000
fbc000
fbc000
ffc000
ffe000
fbf000
f9f800
f9f800
f8fc00
f87e00
f87e00
f83f00
f81f80
ENDCHAR
STARTCHAR L
ENCODING 76
SWIDTH 620 0
DWIDTH 16 0
BBX 13 19 2 0
BITMAP
f800
f800
f800
f800
f800
f800
f800
f800
f800
f800
f800
f800
f800
f800
f800
f800
fff8
fff8
fff8
ENDCHAR
STARTCHAR M
ENCODING 77
SWIDTH 940 0
DWIDTH 24 0
BBX 20 19 2 0
BITMAP
fc03f0
fc03f0
fe07f0
fe07f0
fe07f0
ff0ff0
ef0ff0
ef0ff0
ef9df0
e79df0
e79df0
e7f9f0
e3f9f0
e3f9f0
e3f1f0
e1f1f0
e1f1f0
e1e1f0
e001f0
ENDCHAR
STARTCHAR N
ENCODING 78
SWIDTH 783 0
DWIDTH 20 0
BBX 16 19 2 0
BITMAP
f007
f807
fc07
fe07
fe07
ff07
ff87
ffc7
efc7
e7e7
e3f7
e3ff
e1ff
e0ff
e07f
e07f
e03f
e01f
e00f
ENDCHAR
STARTCHAR O
ENCODING 79
SWIDTH 855 0
DWIDTH 22 0
BBX 20 19 1 0
BITMAP
03fc00
0fff00
1fff80
3f0fc0
7e07e0
7c03e0
f801f0
f801f0
f801f0
f801f0
f801f0
f801f0
f801f0
7c03e0
7e07e0
3f0fc0
1fff80
0fff00
03fc00
ENDCHAR
STARTCHAR P
ENCODING 80
SWIDTH 657 0
DWIDTH 17 0
BBX 14 19 2 0
BITMAP
ffe0
fff8
fffc
f8fc
f87c
f87c
f87c
f8fc
f9f8
fff8
fff0
ffc0
f800
f800
f800
f800
f800
f800
f800
ENDCHAR
STARTCHAR Q
ENCODING 81
SWIDTH 855 0
DWIDTH 22 0
BBX 23 23 1 -4
BITMAP
03fc00
0fff00
1fff80
3f0fc0
7e07e0
7c03e0
f801f0
f801f0
f801f0
f801f0
f801f0
f801f0
f801f0
7c03e0
7e07e0
3f0fc0
1fff80
0fff00
03ff00
000ffe
0007fc
0001f8
000030
ENDCHAR
STARTCHAR R
ENCODING 82
SWIDTH 734 0
DWIDTH 19 0
BBX 17 19 2 0
BITMAP
ffe000
fff800
fff800
f8fc00
f87c00
f87c00
f87c00
f8f800
fff800
fff000
ffe000
f9f000
f9f800
f8f800
f8fc00
f87e00
f87f00
f83f00
f83f80
ENDCHAR
STARTCHAR S
ENCODING 83
SWIDTH 594 0
DWIDTH 15 0
BBX 14 19 1 0
BITMAP
0ff8
3ff8
7ff8
fc18
f800
fc00
fe00
7f80
7fe0
3ff0
0ff8
03fc
00fc
007c
007c
c0fc
fff8
fff0
ffc0
ENDCHAR
STARTCHAR T
ENCODING 84
SWIDTH 735 0
DWIDTH 19 0
BBX 19 19 0 0
BITMAP
ffffe0
ffffe0
ffffe0
01f000
01f000
01f000
01f000
01f000
01f000
01f000
01f000
01f000
01f000
01f000
01f000
01f000
01f000
01f000
01f000
ENDCHAR
STARTCHAR U
ENCODING 85
SWIDTH 783 0
DWIDTH 20 0
BBX 16 19 2 0
BITMAP
f81f
f81f
f81f
f81f
f81f
f81f
f81f
f81f
f81f
f81f
f81f
f81f
f81f
f81f
fc3f
7c3e
7ffe
1ffc
07f0
ENDCHAR
STARTCHAR V
ENCODING 86
SWIDTH 735 0
DWIDTH 19 0
BBX 18 19 0 0
BITMAP
f801c0
fc0380
7c0380
7c0380
3e0700
3e0700
3f0700
1f0e00
1f0e00
1f8e00
0f9c00
0f9c00
0fdc00
07f800
07f800
07f800
03f000
03f000
03f000
ENDCHAR
STARTCHAR W
ENCODING 87
SWIDTH 940 0
DWIDTH 24 0
BBX 24 19 0 0
BITMAP
f81e07
f83e07
fc3e0e
7c3e0e
7c3f0e
7c7f0e
7e7f1c
3e7f1c
3e7f1c
3e77bc
3ee7b8
1fe7b8
1fe7b8
1fe7f8
1fc3f0
0fc3f0
0fc3f0
0fc3f0
0fc1e0
ENDCHAR
STARTCHAR X
ENCODING 88
SWIDTH 699 0
DWIDTH 18 0
BBX 17 19 1 0
BITMAP
fc0780
7e0f00
3e1e00
3f1c00
1fbc00
1fb800
0ff000
07f000
07e000
03f000
03f000
07f800
0ff800
0efc00
1e7c00
3c7e00
383f00
783f00
f01f80
ENDCHAR
STARTCHAR Y
ENCODING 89
SWIDTH 738 0
DWIDTH 19 0
BBX 17 19 1 0
BITMAP
fc0780
7c0700
7e0f00
3e0e00
3f1c00
1f1c00
1fb800
0ff800
0ff000
07f000
03e000
03e000
03e000
03e000
03e000
03e000
03e000
03e000
03e000
ENDCHAR
STARTCHAR Z
ENCODING 90
SWIDTH 675 0
DWIDTH 18 0
BBX 14 19 2 0
BITMAP
fffc
fffc
fffc
00fc
01f8
01f8
03f0
07e0
07e0
0fc0
1f80
1f80
3f00
7e00
7e00
fc00
fffc
fffc
fffc
ENDCHAR
STARTCHAR bracketleft
ENCODING 91
SWIDTH 386 0
DWIDTH 10 0
BBX 6 24 2 -4
BITMAP
fc
fc
fc
f0
f0
f0
f0
f0
f0
f0
f0
f0
f0
f0
f0
f0
f0
f0
f0
f0
f0
fc
fc
fc
ENDCHAR
STARTCHAR backslash
ENCODING 92
SWIDTH 596 0
DWIDTH 15 0
BBX 15 24 0 -4
BITMAP
f000
7000
7800
3800
3c00
1c00
1e00
0e00
0e00
0700
0700
0380
0380
01c0
01c0
00e0
00e0
00f0
0070
0078
0038
003c
001c
001e
ENDCHAR
STARTCHAR bracketright
ENCODING 93
SWIDTH 386 0
DWIDTH 10 0
BBX 7 24 1 -4
BITMAP
fe
fe
fe
1e
1e
1e
1e
1e
1e
1e
1e
1e
1e
1e
1e
1e
1e
1e
1e
1e
1e
fe
fe
fe
ENDCHAR
STARTCHAR asciicircum
ENCODING 94
SWIDTH 687 0
DWIDTH 18 0
BBX 15 16 1 3
BITMAP
0100
0100
0380
0380
07c0
07c0
0fe0
0ee0
1ef0
1c70
1c70
3838
3838
701c
701c
e00e
ENDCHAR
STARTCHAR underscore
ENCODING 95
SWIDTH 500 0
DWIDTH 13 0
BBX 11 3 1 -3
BITMAP
ffe0
ffe0
ffe0
ENDCHAR
STARTCHAR grave
ENCODING 96
SWIDTH 675 0
DWIDTH 18 0
BBX 7 3 4 17
BITMAP
f8
3c
1e
ENDCHAR
STARTCHAR a
ENCODING 97
SWIDTH 623 0
DWIDTH 16 0
BBX 14 14 1 0
BITMAP
1fc0
7ff0
7ff8
41f8
00f8
00f8
1ff8
7ff8
fff8
f8f8
f8f8
fffc
7ffc
3e7c
ENDCHAR
STARTCHAR b
ENCODING 98
SWIDTH 696 0
DWIDTH 18 0
BBX 15 20 2 0
BITMAP
f800
f800
f800
f800
f800
f800
f9f0
fbf8
fffc
fc7c
f83e
f83e
f83e
f83e
f83e
f87e
fc7c
fffc
fff8
f3e0
ENDCHAR
STARTCHAR c
ENCODING 99
SWIDTH 545 0
DWIDTH 14 0
BBX 12 14 1 0
BITMAP
0fe0
1ff0
3ff0
7e10
fc00
f800
f800
f800
f800
fc00
7e10
7ff0
3ff0
0ff0
ENDCHAR
STARTCHAR d
ENCODING 100
SWIDTH 696 0
DWIDTH 18 0
BBX 15 20 1 0
BITMAP
003e
003e
003e
003e
003e
003e
1f3e
3ffe
7ffe
7c7e
fc3e
f83e
f83e
f83e
f83e
f83e
7c7e
7ffe
3fbe
1f3e
ENDCHAR
STARTCHAR e
ENCODING 101
SWIDTH 614 0
DWIDTH 16 0
BBX 14 14 1 0
BITMAP
0fe0
3ff0
7ff8
7cf8
f87c
fffc
fffc
fffc
f800
fc00
7e04
3ffc
1ffc
07f8
ENDCHAR
STARTCHAR f
ENCODING 102
SWIDTH 461 0
DWIDTH 12 0
BBX 12 20 0 0
BITMAP
07f0
1ff0
1ff0
3e00
3e00
3e00
ffe0
ffe0
ffe0
3e00
3e00
3e00
3e00
3e00
3e00
3e00
3e00
3e00
3e00
3e00
ENDCHAR
STARTCHAR g
ENCODING 103
SWIDTH 696 0
DWIDTH 18 0
BBX 15 19 1 -5
BITMAP
0fbe
3ffe
7ffe
7c7e
fc3e
f83e
f83e
f83e
f83e
f83e
7c7e
7fbe
3fbe
1e3e
003e
207e
3ffc
7ff8
1fe0
ENDCHAR
STARTCHAR h
ENCODING 104
SWIDTH 693 0
DWIDTH 18 0
BBX 14 20 2 0
BITMAP
f800
f800
f800
f800
f800
f800
f9f0
fbf8
fffc
fffc
fc7c
f87c
f87c
f87c
f87c
f87c
f87c
f87c
f87c
f87c
ENDCHAR
STARTCHAR i
ENCODING 105
SWIDTH 361 0
DWIDTH 9 0
BBX 5 20 2 0
BITMAP
f8
f8
f8
00
00
00
f8
f8
f8
f8
f8
f8
f8
f8
f8
f8
f8
f8
f8
f8
ENDCHAR
STARTCHAR j
ENCODING 106
SWIDTH 361 0
DWIDTH 9 0
BBX 10 25 -2 -5
BITMAP
07c0
07c0
07c0
0000
0000
0000
07c0
07c0
07c0
07c0
07c0
07c0
07c0
07c0
07c0
07c0
07c0
07c0
07c0
07c0
07c0
87c0
ff80
ff80
fe00
ENDCHAR
STARTCHAR k
ENCODING 107
SWIDTH 681 0
DWIDTH 18 0
BBX 15 20 2 0
BITMAP
f800
f800
f800
f800
f800
f800
f878
f870
f8f0
f9e0
f9c0
fbc0
ffc0
fbe0
fbf0
f9f0
f9f8
f8fc
f8fc
f87e
ENDCHAR
STARTCHAR l
ENCODING 108
SWIDTH 361 0
DWIDTH 9 0
BBX 5 20 2 0
BITMAP
f8
f8
f8
f8
f8
f8
f8
f8
f8
f8
f8
f8
f8
f8
f8
f8
f8
f8
f8
f8
ENDCHAR
STARTCHAR m
ENCODING 109
SWIDTH 1006 0
DWIDTH 26 0
BBX 21 14 3 0
BITMAP
fbe1f0
f7f3f8
fffff8
fffff8
fcfcf8
f8f8f8
f8f8f8
f8f8f8
f8f8f8
f8f8f8
f8f8f8
f8f8f8
f8f8f8
f8f8f8
ENDCHAR
STARTCHAR n
ENCODING 110
SWIDTH 693 0
DWIDTH 18 0
BBX 14 14 2 0
BITMAP
f9f0
fbf8
fffc
fffc
fc7c
f87c
f87c
f87c
f87c
f87c
f87c
f87c
f87c
f87c
ENDCHAR
STARTCHAR o
ENCODING 111
SWIDTH 675 0
DWIDTH 18 0
BBX 16 14 1 0
BITMAP
07e0
1ff8
7ffe
7c3e
fc3f
f81f
f81f
f81f
f81f
fc3f
7c3e
7ffe
1ff8
07e0
ENDCHAR
STARTCHAR p
ENCODING 112
SWIDTH 696 0
DWIDTH 18 0
BBX 15 19 2 -5
BITMAP
f9f0
fbf8
fffc
fc7c
f83e
f83e
f83e
f83e
f83e
f87e
fc7c
fffc
fff8
f9f0
f800
f800
f800
f800
f800
ENDCHAR
STARTCHAR q
ENCODING 113
SWIDTH 696 0
DWIDTH 18 0
BBX 15 19 1 -5
BITMAP
0f9e
3ffe
7ffe
7c7e
fc3e
f83e
f83e
f83e
f83e
f83e
7c7e
7ffe
3fbe
1f3e
003e
003e
003e
003e
003e
ENDCHAR
STARTCHAR r
ENCODING 114
SWIDTH 500 0
DWIDTH 13 0
BBX 10 14 2 0
BITMAP
f9c0
fbc0
ffc0
ffc0
fc00
f800
f800
f800
f800
f800
f800
f800
f800
f800
ENDCHAR
STARTCHAR s
ENCODING 115
SWIDTH 622 0
DWIDTH 16 0
BBX 13 14 2 0
BITMAP
1fe0
7ff0
fff0
f830
f800
ff00
7fc0
1ff0
07f8
01f8
c0f8
fff0
fff0
7fc0
ENDCHAR
STARTCHAR t
ENCODING 116
SWIDTH 436 0
DWIDTH 11 0
BBX 9 18 1 0
BITMAP
1c00
7c00
7c00
7c00
ff80
ff80
ff80
7c00
7c00
7c00
7c00
7c00
7c00
7c00
7c00
7f80
3f80
1f80
ENDCHAR
STARTCHAR u
ENCODING 117
SWIDTH 693 0
DWIDTH 18 0
BBX 14 14 2 0
BITMAP
f87c
f87c
f87c
f87c
f87c
f87c
f87c
f87c
f87c
f87c
f8fc
fffc
7f7c
3e7c
ENDCHAR
STARTCHAR v
ENCODING 118
SWIDTH 663 0
DWIDTH 17 0
BBX 16 14 1 0
BITMAP
fc0f
7c0e
7c0e
7e1e
3e1c
3f1c
1f38
1f38
1ff8
0ff0
0ff0
07e0
07e0
07e0
ENDCHAR
STARTCHAR w
ENCODING 119
SWIDTH 885 0
DWIDTH 23 0
BBX 21 14 1 0
BITMAP
f07838
f87c38
78fc70
78fc70
78fc70
7dfee0
3ddee0
3ddee0
3ddee0
3f8fc0
1f8fc0
1f8fc0
1f8fc0
1f0f80
ENDCHAR
STARTCHAR x
ENCODING 120
SWIDTH 568 0
DWIDTH 15 0
BBX 14 14 1 0
BITMAP
fc3c
7e78
3e70
3ff0
1fe0
1fc0
0fc0
0fc0
0fe0
1fe0
3ff0
39f8
78f8
f0fc
ENDCHAR
STARTCHAR y
ENCODING 121
SWIDTH 645 0
DWIDTH 17 0
BBX 16 19 0 -5
BITMAP
fc0f
7c0e
7c1e
7e1c
3e3c
3f38
1f78
1f70
1ff0
0fe0
0fe0
07c0
07c0
0780
0780
0f00
0f00
1f00
3e00
ENDCHAR
STARTCHAR z
ENCODING 122
SWIDTH 608 0
DWIDTH 16 0
BBX 13 14 2 0
BITMAP
fff8
fff8
fff8
03f8
07f0
0fe0
0fc0
1f80
3f00
7f00
fe00
fff8
fff8
fff8
ENDCHAR
STARTCHAR braceleft
ENCODING 123
SWIDTH 386 0
DWIDTH 10 0
BBX 7 24 2 -4
BITMAP
1e
3e
7e
7c
7c
7c
7c
7c
7c
7c
78
f0
f0
f8
7c
7c
7c
7c
7c
7c
7c
7e
3e
1e
ENDCHAR
STARTCHAR bar
ENCODING 124
SWIDTH 265 0
DWIDTH 7 0
BBX 3 24 2 -4
BITMAP
e0
e0
e0
e0
e0
e0
e0
e0
e0
e0
e0
e0
e0
e0
e0
e0
e0
e0
e0
e0
e0
e0
e0
e0
ENDCHAR
STARTCHAR braceright
ENCODING 125
SWIDTH 386 0
DWIDTH 10 0
BBX 7 24 1 -4
BITMAP
f0
f8
fc
7c
7c
7c
7c
7c
7c
7c
3c
1e
1e
3e
7c
7c
7c
7c
7c
7c
7c
fc
f8
f0
ENDCHAR
STARTCHAR asciitilde
ENCODING 126
SWIDTH 687 0
DWIDTH 18 0
BBX 15 7 1 4
BITMAP
3c0e
7e0e
7f8e
f7de
e3fc
e0fc
e078
ENDCHAR
STARTCHAR nobreakspace
ENCODING 160
SWIDTH 343 0
DWIDTH 9 0
BBX 1 1 0 0
BITMAP
00
ENDCHAR
STARTCHAR Aogonek
ENCODING 161
SWIDTH 773 0
DWIDTH 20 0
BBX 19 22 1 -3
BITMAP
01f000
01f800
03f800
03f800
07fc00
077c00
077e00
0f3e00
0e3e00
0e3f00
1c1f00
1fff00
3fff80
3fff80
380fc0
7807c0
7007c0
7003e0
e003e0
00e000
01c000
00f000
ENDCHAR
STARTCHAR breve
ENCODING 162
SWIDTH 675 0
DWIDTH 18 0
BBX 9 3 4 17
BITMAP
e380
7f00
3e00
ENDCHAR
STARTCHAR Lstroke
ENCODING 163
SWIDTH 620 0
DWIDTH 16 0
BBX 16 19 0 0
BITMAP
1f00
1f00
1f00
1f00
1f00
1f20
1fe0
1fe0
1fc0
3f00
ff00
ff00
ff00
9f00
1f00
1f00
1fff
1fff
1fff
ENDCHAR
STARTCHAR currency
ENCODING 164
SWIDTH 687 0
DWIDTH 18 0
BBX 18 19 0 0
BITMAP
600180
600180
f003c0
780780
3def00
1ffe00
0ffc00
1f3e00
1e1e00
1c0e00
1c0e00
1e1e00
0f3c00
1ffe00
3fff00
7def80
f807c0
700380
200100
ENDCHAR
STARTCHAR Lcaron
ENCODING 165
SWIDTH 620 0
DWIDTH 16 0
BBX 13 22 2 0
BITMAP
03e0
03e0
03e0
fbe0
fbe0
f8e0
f8c0
fbc0
fb00
f800
f800
f800
f800
f800
f800
f800
f800
f800
f800
fff8
fff8
fff8
ENDCHAR
STARTCHAR Sacute
ENCODING 166
SWIDTH 594 0
DWIDTH 15 0
BBX 14 23 1 0
BITMAP
01f0
03c0
0780
0000
0ff8
3ff8
7ff8
fc18
f800
fc00
fe00
7f80
7fe0
3ff0
0ff8
03fc
00fc
007c
007c
c0fc
fff8
fff0
ffc0
ENDCHAR
STARTCHAR section
ENCODING 167
SWIDTH 693 0
DWIDTH 18 0
BBX 13 24 2 -5
BITMAP
1ff0
7ff0
fff0
f810
f800
fe00
ff80
7fe0
3ff0
7ff8
e3f8
e0f8
f838
ff38
fff0
7fe0
3ff0
0ff8
01f8
00f8
c0f8
fff0
ffe0
ff80
ENDCHAR
STARTCHAR diaeresis
ENCODING 168
SWIDTH 675 0
DWIDTH 18 0
BBX 8 3 5 16
BITMAP
e7
e7
e7
ENDCHAR
STARTCHAR Scaron
ENCODING 169
SWIDTH 594 0
DWIDTH 15 0
BBX 14 23 1 0
BITMAP
38e0
1fc0
0f80
0000
0ff8
3ff8
7ff8
fc18
f800
fc00
fe00
7f80
7fe0
3ff0
0ff8
03fc
00fc
007c
007c
c0fc
fff8
fff0
ffc0
ENDCHAR
STARTCHAR Scedilla
ENCODING 170
SWIDTH 594 0
DWIDTH 15 0
BBX 14 24 1 -5
BITMAP
0ff8
3ff8
7ff8
fc18
f800
fc00
fe00
7f80
7fe0
3ff0
0ff8
03fc
00fc
007c
007c
c0fc
fff8
fff0
ffc0
0300
0600
0380
0f80
0f00
ENDCHAR
STARTCHAR Tcaron
ENCODING 171
SWIDTH 735 0
DWIDTH 19 0
BBX 19 23 0 0
BITMAP
071c00
03f800
01f000
000000
ffffe0
ffffe0
ffffe0
01f000
01f000
01f000
01f000
01f000
01f000
01f000
01f000
01f000
01f000
01f000
01f000
01f000
01f000
01f000
01f000
ENDCHAR
STARTCHAR Zacute
ENCODING 172
SWIDTH 675 0
DWIDTH 18 0
BBX 14 23 2 0
BITMAP
01f0
03c0
0780
0000
fffc
fffc
fffc
00fc
01f8
01f8
03f0
07e0
07e0
0fc0
1f80
1f80
3f00
7e00
7e00
fc00
fffc
fffc
fffc
ENDCHAR
STARTCHAR hyphen
ENCODING 173
SWIDTH 289 0
DWIDTH 8 0
BBX 6 3 1 7
BITMAP
fc
fc
fc
ENDCHAR
STARTCHAR Zcaron
ENCODING 174
SWIDTH 675 0
DWIDTH 18 0
BBX 14 23 2 0
BITMAP
38e0
1fc0
0f80
0000
fffc
fffc
fffc
00fc
01f8
01f8
03f0
07e0
07e0
0fc0
1f80
1f80
3f00
7e00
7e00
fc00
fffc
fffc
fffc
ENDCHAR
STARTCHAR Zabovedot
ENCODING 175
SWIDTH 675 0
DWIDTH 18 0
BBX 14 23 2 0
BITMAP
0780
0780
0780
0000
fffc
fffc
fffc
00fc
01f8
01f8
03f0
07e0
07e0
0fc0
1f80
1f80
3f00
7e00
7e00
fc00
fffc
fffc
fffc
ENDCHAR
STARTCHAR degree
ENCODING 176
SWIDTH 241 0
DWIDTH 6 0
BBX 4 5 1 14
BITMAP
60
90
90
90
60
ENDCHAR
STARTCHAR aogonek
ENCODING 177
SWIDTH 623 0
DWIDTH 16 0
BBX 14 17 1 -3
BITMAP
1fc0
7ff0
7ff8
41f8
00f8
00f8
1ff8
7ff8
fff8
f8f8
f8f8
fffc
7ffc
3e7c
0700
0e00
0780
ENDCHAR
STARTCHAR ogonek
ENCODING 178
SWIDTH 675 0
DWIDTH 18 0
BBX 5 3 6 -4
BITMAP
70
e0
78
ENDCHAR
STARTCHAR lstroke
ENCODING 179
SWIDTH 361 0
DWIDTH 9 0
BBX 11 20 0 0
BITMAP
1f00
1f00
1f00
1f00
1f00
1f00
1f20
1fe0
1fe0
1fc0
7f00
ff00
ff00
df00
1f00
1f00
1f00
1f00
1f00
1f00
ENDCHAR
STARTCHAR acute
ENCODING 180
SWIDTH 675 0
DWIDTH 18 0
BBX 7 3 6 17
BITMAP
3e
78
f0
ENDCHAR
STARTCHAR lcaron
ENCODING 181
SWIDTH 568 0
DWIDTH 15 0
BBX 11 23 2 0
BITMAP
03e0
03e0
03e0
fbe0
fbe0
f8e0
f8c0
fbc0
fb00
f800
f800
f800
f800
f800
f800
f800
f800
f800
f800
f800
f800
f800
f800
ENDCHAR
STARTCHAR sacute
ENCODING 182
SWIDTH 622 0
DWIDTH 16 0
BBX 13 18 2 0
BITMAP
03e0
0780
0f00
0000
1fe0
7ff0
fff0
f830
f800
ff00
7fc0
1ff0
07f8
01f8
c0f8
fff0
fff0
7fc0
ENDCHAR
STARTCHAR caron
ENCODING 183
SWIDTH 675 0
DWIDTH 18 0
BBX 9 3 4 17
BITMAP
e380
7f00
3e00
ENDCHAR
STARTCHAR cedilla
ENCODING 184
SWIDTH 675 0
DWIDTH 18 0
BBX 5 5 6 -5
BITMAP
30
60
38
f8
f0
ENDCHAR
STARTCHAR scaron
ENCODING 185
SWIDTH 622 0
DWIDTH 16 0
BBX 13 18 2 0
BITMAP
71c0
3f80
1f00
0000
1fe0
7ff0
fff0
f830
f800
ff00
7fc0
1ff0
07f8
01f8
c0f8
fff0
fff0
7fc0
ENDCHAR
STARTCHAR scedilla
ENCODING 186
SWIDTH 622 0
DWIDTH 16 0
BBX 13 19 2 -5
BITMAP
1fe0
7ff0
fff0
f830
f800
ff00
7fc0
1ff0
07f8
01f8
c0f8
fff0
fff0
7fc0
0300
0600
0380
0f80
0f00
ENDCHAR
STARTCHAR tcaron
ENCODING 187
SWIDTH 530 0
DWIDTH 14 0
BBX 12 24 1 0
BITMAP
01f0
01f0
01f0
01f0
01f0
0070
1c60
7de0
7d80
7c00
ff80
ff80
ff80
7c00
7c00
7c00
7c00
7c00
7c00
7c00
7c00
7f80
3f80
1f80
ENDCHAR
STARTCHAR zacute
ENCODING 188
SWIDTH 608 0
DWIDTH 16 0
BBX 13 18 2 0
BITMAP
01f0
03c0
0780
0000
fff8
fff8
fff8
03f8
07f0
0fe0
0fc0
1f80
3f00
7f00
fe00
fff8
fff8
fff8
ENDCHAR
STARTCHAR doubleacute
ENCODING 189
SWIDTH 675 0
DWIDTH 18 0
BBX 10 3 5 17
BITMAP
3dc0
7300
ee00
ENDCHAR
STARTCHAR zcaron
ENCODING 190
SWIDTH 608 0
DWIDTH 16 0
BBX 13 18 2 0
BITMAP
38e0
1fc0
0f80
0000
fff8
fff8
fff8
03f8
07f0
0fe0
0fc0
1f80
3f00
7f00
fe00
fff8
fff8
fff8
ENDCHAR
STARTCHAR zabovedot
ENCODING 191
SWIDTH 608 0
DWIDTH 16 0
BBX 13 18 2 0
BITMAP
0780
0780
0780
0000
fff8
fff8
fff8
03f8
07f0
0fe0
0fc0
1f80
3f00
7f00
fe00
fff8
fff8
fff8
ENDCHAR
STARTCHAR Racute
ENCODING 192
SWIDTH 734 0
DWIDTH 19 0
BBX 17 23 2 0
BITMAP
01f000
03c000
078000
000000
ffe000
fff800
fff800
f8fc00
f87c00
f87c00
f87c00
f8f800
fff800
fff000
ffe000
f9f000
f9f800
f8f800
f8fc00
f87e00
f87f00
f83f00
f83f80
ENDCHAR
STARTCHAR Aacute
ENCODING 193
SWIDTH 773 0
DWIDTH 20 0
BBX 19 23 1 0
BITMAP
007c00
00f000
01e000
000000
01f000
01f800
03f800
03f800
07fc00
077c00
077e00
0f3e00
0e3e00
0e3f00
1c1f00
1fff00
3fff80
3fff80
380fc0
7807c0
7007c0
7003e0
e003e0
ENDCHAR
STARTCHAR Acircumflex
ENCODING 194
SWIDTH 773 0
DWIDTH 20 0
BBX 19 23 1 0
BITMAP
01f000
03f800
071c00
000000
01f000
01f800
03f800
03f800
07fc00
077c00
077e00
0f3e00
0e3e00
0e3f00
1c1f00
1fff00
3fff80
3fff80
380fc0
7807c0
7007c0
7003e0
e003e0
ENDCHAR
STARTCHAR Abreve
ENCODING 195
SWIDTH 773 0
DWIDTH 20 0
BBX 19 23 1 0
BITMAP
071c00
03f800
01f000
000000
01f000
01f800
03f800
03f800
07fc00
077c00
077e00
0f3e00
0e3e00
0e3f00
1c1f00
1fff00
3fff80
3fff80
380fc0
7807c0
7007c0
7003e0
e003e0
ENDCHAR
STARTCHAR Adiaeresis
ENCODING 196
SWIDTH 773 0
DWIDTH 20 0
BBX 19 23 1 0
BITMAP
039c00
039c00
039c00
000000
01f000
01f800
03f800
03f800
07fc00
077c00
077e00
0f3e00
0e3e00
0e3f00
1c1f00
1fff00
3fff80
3fff80
380fc0
7807c0
7007c0
7003e0
e003e0
ENDCHAR
STARTCHAR Lacute
ENCODING 197
SWIDTH 620 0
DWIDTH 16 0
BBX 13 23 2 0
BITMAP
1f00
3c00
7800
0000
f800
f800
f800
f800
f800
f800
f800
f800
f800
f800
f800
f800
f800
f800
f800
f800
fff8
fff8
fff8
ENDCHAR
STARTCHAR Cacute
ENCODING 198
SWIDTH 726 0
DWIDTH 19 0
BBX 17 23 1 0
BITMAP
003e00
007800
00f000
000000
01ff00
0fff80
1fff80
3f0180
7e0000
7c0000
fc0000
f80000
f80000
f80000
f80000
f80000
fc0000
7c0000
7e0000
3f8180
1fff80
0fff80
03fe00
ENDCHAR
STARTCHAR Ccedilla
ENCODING 199
SWIDTH 726 0
DWIDTH 19 0
BBX 17 24 1 -5
BITMAP
01ff00
0fff80
1fff80
3f0180
7e0000
7c0000
fc0000
f80000
f80000
f80000
f80000
f80000
fc0000
7c0000
7e0000
3f8180
1fff80
0fff80
03fe00
00c000
018000
00e000
03e000
03c000
ENDCHAR
STARTCHAR Ccaron
ENCODING 200
SWIDTH 726 0
DWIDTH 19 0
BBX 17 23 1 0
BITMAP
071c00
03f800
01f000
000000
01ff00
0fff80
1fff80
3f0180
7e0000
7c0000
fc0000
f80000
f80000
f80000
f80000
f80000
fc0000
7c0000
7e0000
3f8180
1fff80
0fff80
03fe00
ENDCHAR
STARTCHAR Eacute
ENCODING 201
SWIDTH 645 0
DWIDTH 17 0
BBX 13 23 2 0
BITMAP
03e0
0780
0f00
0000
fff0
fff0
fff0
f800
f800
f800
f800
f800
ffe0
ffe0
ffe0
f800
f800
f800
f800
f800
fff8
fff8
fff8
ENDCHAR
STARTCHAR Eogonek
ENCODING 202
SWIDTH 645 0
DWIDTH 17 0
BBX 13 22 2 -3
BITMAP
fff0
fff0
fff0
f800
f800
f800
f800
f800
ffe0
ffe0
ffe0
f800
f800
f800
f800
f800
fff8
fff8
fff8
0700
0e00
0780
ENDCHAR
STARTCHAR Ediaeresis
ENCODING 203
SWIDTH 645 0
DWIDTH 17 0
BBX 13 23 2 0
BITMAP
39c0
39c0
39c0
0000
fff0
fff0
fff0
f800
f800
f800
f800
f800
ffe0
ffe0
ffe0
f800
f800
f800
f800
f800
fff8
fff8
fff8
ENDCHAR
STARTCHAR Ecaron
ENCODING 204
SWIDTH 645 0
DWIDTH 17 0
BBX 13 23 2 0
BITMAP
71c0
3f80
1f00
0000
fff0
fff0
fff0
f800
f800
f800
f800
f800
ffe0
ffe0
ffe0
f800
f800
f800
f800
f800
fff8
fff8
fff8
ENDCHAR
STARTCHAR Iacute
ENCODING 205
SWIDTH 361 0
DWIDTH 9 0
BBX 7 23 2 0
BITMAP
3e
78
f0
00
f8
f8
f8
f8
f8
f8
f8
f8
f8
f8
f8
f8
f8
f8
f8
f8
f8
f8
f8
ENDCHAR
STARTCHAR Icircumflex
ENCODING 206
SWIDTH 361 0
DWIDTH 9 0
BBX 9 23 4 0
BITMAP
3e00
7f00
e380
0000
3e00
3e00
3e00
3e00
3e00
3e00
3e00
3e00
3e00
3e00
3e00
3e00
3e00
3e00
3e00
3e00
3e00
3e00
3e00
ENDCHAR
STARTCHAR Dcaron
ENCODING 207
SWIDTH 819 0
DWIDTH 21 0
BBX 18 23 2 0
BITMAP
1c7000
0fe000
07c000
000000
fff800
fffe00
ffff00
f83f80
f81f80
f80f80
f807c0
f807c0
f807c0
f807c0
f807c0
f807c0
f807c0
f80f80
f80f80
f83f00
ffff00
fffc00
fff000
ENDCHAR
STARTCHAR Dstroke
ENCODING 208
SWIDTH 819 0
DWIDTH 21 0
BBX 21 19 0 0
BITMAP
1fff00
1fffc0
1fffe0
1f07f0
1f03f0
1f01f0
1f00f8
1f00f8
fff0f8
fff0f8
fff0f8
1f00f8
1f00f8
1f01f0
1f01f0
1f07e0
1fffe0
1fff80
1ffe00
ENDCHAR
STARTCHAR Nacute
ENCODING 209
SWIDTH 783 0
DWIDTH 20 0
BBX 16 23 2 0
BITMAP
00f8
01e0
03c0
0000
f007
f807
fc07
fe07
fe07
ff07
ff87
ffc7
efc7
e7e7
e3f7
e3ff
e1ff
e0ff
e07f
e07f
e03f
e01f
e00f
ENDCHAR
STARTCHAR Ncaron
ENCODING 210
SWIDTH 783 0
DWIDTH 20 0
BBX 16 23 2 0
BITMAP
1c70
0fe0
07c0
0000
f007
f807
fc07
fe07
fe07
ff07
ff87
ffc7
efc7
e7e7
e3f7
e3ff
e1ff
e0ff
e07f
e07f
e03f
e01f
e00f
ENDCHAR
STARTCHAR Oacute
ENCODING 211
SWIDTH 855 0
DWIDTH 22 0
BBX 20 23 1 0
BITMAP
003e00
007800
00f000
000000
03fc00
0fff00
1fff80
3f0fc0
7e07e0
7c03e0
f801f0
f801f0
f801f0
f801f0
f801f0
f801f0
f801f0
7c03e0
7e07e0
3f0fc0
1fff80
0fff00
03fc00
ENDCHAR
STARTCHAR Ocircumflex
ENCODING 212
SWIDTH 855 0
DWIDTH 22 0
BBX 20 23 1 0
BITMAP
00f800
01fc00
038e00
000000
03fc00
0fff00
1fff80
3f0fc0
7e07e0
7c03e0
f801f0
f801f0
f801f0
f801f0
f801f0
f801f0
f801f0
7c03e0
7e07e0
3f0fc0
1fff80
0fff00
03fc00
ENDCHAR
STARTCHAR Odoubleacute
ENCODING 213
SWIDTH 855 0
DWIDTH 22 0
BBX 20 23 1 0
BITMAP
00f700
01cc00
03b800
000000
03fc00
0fff00
1fff80
3f0fc0
7e07e0
7c03e0
f801f0
f801f0
f801f0
f801f0
f801f0
f801f0
f801f0
7c03e0
7e07e0
3f0fc0
1fff80
0fff00
03fc00
ENDCHAR
STARTCHAR Odiaeresis
ENCODING 214
SWIDTH 855 0
DWIDTH 22 0
BBX 20 23 1 0
BITMAP
039c00
039c00
039c00
000000
03fc00
0fff00
1fff80
3f0fc0
7e07e0
7c03e0
f801f0
f801f0
f801f0
f801f0
f801f0
f801f0
f801f0
7c03e0
7e07e0
3f0fc0
1fff80
0fff00
03fc00
ENDCHAR
STARTCHAR multiply
ENCODING 215
SWIDTH 687 0
DWIDTH 18 0
BBX 15 16 1 0
BITMAP
600c
600c
f01e
783c
3c78
1ef0
0fe0
07c0
07c0
0fe0
1ef0
3c78
783c
f01e
600c
600c
ENDCHAR
STARTCHAR Rcaron
ENCODING 216
SWIDTH 734 0
DWIDTH 19 0
BBX 17 23 2 0
BITMAP
38e000
1fc000
0f8000
000000
ffe000
fff800
fff800
f8fc00
f87c00
f87c00
f87c00
f8f800
fff800
fff000
ffe000
f9f000
f9f800
f8f800
f8fc00
f87e00
f87f00
f83f00
f83f80
ENDCHAR
STARTCHAR Uring
ENCODING 217
SWIDTH 783 0
DWIDTH 20 0
BBX 16 24 2 0
BITMAP
0180
0240
0240
0180
0000
f81f
f81f
f81f
f81f
f81f
f81f
f81f
f81f
f81f
f81f
f81f
f81f
f81f
f81f
fc3f
7c3e
7ffe
1ffc
07f0
ENDCHAR
STARTCHAR Uacute
ENCODING 218
SWIDTH 783 0
DWIDTH 20 0
BBX 16 23 2 0
BITMAP
00f8
01e0
03c0
0000
f81f
f81f
f81f
f81f
f81f
f81f
f81f
f81f
f81f
f81f
f81f
f81f
f81f
f81f
fc3f
7c3e
7ffe
1ffc
07f0
ENDCHAR
STARTCHAR Udoubleacute
ENCODING 219
SWIDTH 783 0
DWIDTH 20 0
BBX 16 23 2 0
BITMAP
03dc
0730
0ee0
0000
f81f
f81f
f81f
f81f
f81f
f81f
f81f
f81f
f81f
f81f
f81f
f81f
f81f
f81f
fc3f
7c3e
7ffe
1ffc
07f0
ENDCHAR
STARTCHAR Udiaeresis
ENCODING 220
SWIDTH 783 0
DWIDTH 20 0
BBX 16 23 2 0
BITMAP
0e70
0e70
0e70
0000
f81f
f81f
f81f
f81f
f81f
f81f
f81f
f81f
f81f
f81f
f81f
f81f
f81f
f81f
fc3f
7c3e
7ffe
1ffc
07f0
ENDCHAR
STARTCHAR Yacute
ENCODING 221
SWIDTH 738 0
DWIDTH 19 0
BBX 17 23 1 0
BITMAP
00f800
01e000
03c000
000000
fc0780
7c0700
7e0f00
3e0e00
3f1c00
1f1c00
1fb800
0ff800
0ff000
07f000
03e000
03e000
03e000
03e000
03e000
03e000
03e000
03e000
03e000
ENDCHAR
STARTCHAR Tcedilla
ENCODING 222
SWIDTH 735 0
DWIDTH 19 0
BBX 19 24 0 -5
BITMAP
ffffe0
ffffe0
ffffe0
01f000
01f000
01f000
01f000
01f000
01f000
01f000
01f000
01f000
01f000
01f000
01f000
01f000
01f000
01f000
01f000
006000
00c000
007000
01f000
01e000
ENDCHAR
STARTCHAR ssharp
ENCODING 223
SWIDTH 724 0
DWIDTH 19 0
BBX 16 20 2 0
BITMAP
0fc0
3ff0
7ff0
78f0
f870
f8f0
f8e0
f9c0
f9e0
fbf0
fbf8
f9fc
f9fe
f87f
f83f
f81f
f81f
f9ff
f9fe
f9f8
ENDCHAR
STARTCHAR racute
ENCODING 224
SWIDTH 500 0
DWIDTH 13 0
BBX 10 18 2 0
BITMAP
07c0
0f00
1e00
0000
f9c0
fbc0
ffc0
ffc0
fc00
f800
f800
f800
f800
f800
f800
f800
f800
f800
ENDCHAR
STARTCHAR aacute
ENCODING 225
SWIDTH 623 0
DWIDTH 16 0
BBX 14 18 1 0
BITMAP
01f0
03c0
0780
0000
1fc0
7ff0
7ff8
41f8
00f8
00f8
1ff8
7ff8
fff8
f8f8
f8f8
fffc
7ffc
3e7c
ENDCHAR
STARTCHAR acircumflex
ENCODING 226
SWIDTH 623 0
DWIDTH 16 0
BBX 14 18 1 0
BITMAP
07c0
0fe0
1c70
0000
1fc0
7ff0
7ff8
41f8
00f8
00f8
1ff8
7ff8
fff8
f8f8
f8f8
fffc
7ffc
3e7c
ENDCHAR
STARTCHAR abreve
ENCODING 227
SWIDTH 623 0
DWIDTH 16 0
BBX 14 18 1 0
BITMAP
38e0
1fc0
0f80
0000
1fc0
7ff0
7ff8
41f8
00f8
00f8
1ff8
7ff8
fff8
f8f8
f8f8
fffc
7ffc
3e7c
ENDCHAR
STARTCHAR adiaeresis
ENCODING 228
SWIDTH 623 0
DWIDTH 16 0
BBX 14 18 1 0
BITMAP
1ce0
1ce0
1ce0
0000
1fc0
7ff0
7ff8
41f8
00f8
00f8
1ff8
7ff8
fff8
f8f8
f8f8
fffc
7ffc
3e7c
ENDCHAR
STARTCHAR lacute
ENCODING 229
SWIDTH 361 0
DWIDTH 9 0
BBX 8 24 2 0
BITMAP
1f
3c
78
00
f8
f8
f8
f8
f8
f8
f8
f8
f8
f8
f8
f8
f8
f8
f8
f8
f8
f8
f8
f8
ENDCHAR
STARTCHAR cacute
ENCODING 230
SWIDTH 545 0
DWIDTH 14 0
BBX 12 18 1 0
BITMAP
01f0
03c0
0780
0000
0fe0
1ff0
3ff0
7e10
fc00
f800
f800
f800
f800
fc00
7e10
7ff0
3ff0
0ff0
ENDCHAR
STARTCHAR ccedilla
ENCODING 231
SWIDTH 545 0
DWIDTH 14 0
BBX 12 19 1 -5
BITMAP
0fe0
1ff0
3ff0
7e10
fc00
f800
f800
f800
f800
fc00
7e10
7ff0
3ff0
0ff0
0300
0600
0380
0f80
0f00
ENDCHAR
STARTCHAR ccaron
ENCODING 232
SWIDTH 545 0
DWIDTH 14 0
BBX 12 18 1 0
BITMAP
38e0
1fc0
0f80
0000
0fe0
1ff0
3ff0
7e10
fc00
f800
f800
f800
f800
fc00
7e10
7ff0
3ff0
0ff0
ENDCHAR
STARTCHAR eacute
ENCODING 233
SWIDTH 614 0
DWIDTH 16 0
BBX 14 18 1 0
BITMAP
01f0
03c0
0780
0000
0fe0
3ff0
7ff8
7cf8
f87c
fffc
fffc
fffc
f800
fc00
7e04
3ffc
1ffc
07f8
ENDCHAR
STARTCHAR eogonek
ENCODING 234
SWIDTH 614 0
DWIDTH 16 0
BBX 14 17 1 -3
BITMAP
0fe0
3ff0
7ff8
7cf8
f87c
fffc
fffc
fffc
f800
fc00
7e04
3ffc
1ffc
07f8
0700
0e00
0780
ENDCHAR
STARTCHAR ediaeresis
ENCODING 235
SWIDTH 614 0
DWIDTH 16 0
BBX 14 18 1 0
BITMAP
1ce0
1ce0
1ce0
0000
0fe0
3ff0
7ff8
7cf8
f87c
fffc
fffc
fffc
f800
fc00
7e04
3ffc
1ffc
07f8
ENDCHAR
STARTCHAR ecaron
ENCODING 236
SWIDTH 614 0
DWIDTH 16 0
BBX 14 18 1 0
BITMAP
38e0
1fc0
0f80
0000
0fe0
3ff0
7ff8
7cf8
f87c
fffc
fffc
fffc
f800
fc00
7e04
3ffc
1ffc
07f8
ENDCHAR
STARTCHAR iacute
ENCODING 237
SWIDTH 361 0
DWIDTH 9 0
BBX 7 18 2 0
BITMAP
3e
78
f0
00
f8
f8
f8
f8
f8
f8
f8
f8
f8
f8
f8
f8
f8
f8
ENDCHAR
STARTCHAR icircumflex
ENCODING 238
SWIDTH 361 0
DWIDTH 9 0
BBX 9 18 4 0
BITMAP
3e00
7f00
e380
0000
3e00
3e00
3e00
3e00
3e00
3e00
3e00
3e00
3e00
3e00
3e00
3e00
3e00
3e00
ENDCHAR
STARTCHAR dcaron
ENCODING 239
SWIDTH 909 0
DWIDTH 24 0
BBX 21 23 1 0
BITMAP
0000f8
0000f8
0000f8
003ef8
003ef8
003e38
003e30
003ef0
003ec0
1f3e00
3ffe00
7ffe00
7c7e00
fc3e00
f83e00
f83e00
f83e00
f83e00
f83e00
7c7e00
7ffe00
3fbe00
1f3e00
ENDCHAR
STARTCHAR dstroke
ENCODING 240
SWIDTH 871 0
DWIDTH 23 0
BBX 20 20 1 0
BITMAP
003e00
003e00
07fff0
07fff0
003e00
003e00
1f3e00
3ffe00
7ffe00
7c7e00
fc3e00
f83e00
f83e00
f83e00
f83e00
f83e00
7c7e00
7ffe00
3fbe00
1f3e00
ENDCHAR
STARTCHAR nacute
ENCODING 241
SWIDTH 693 0
DWIDTH 18 0
BBX 14 18 2 0
BITMAP
01f0
03c0
0780
0000
f9f0
fbf8
fffc
fffc
fc7c
f87c
f87c
f87c
f87c
f87c
f87c
f87c
f87c
f87c
ENDCHAR
STARTCHAR ncaron
ENCODING 242
SWIDTH 693 0
DWIDTH 18 0
BBX 14 18 2 0
BITMAP
38e0
1fc0
0f80
0000
f9f0
fbf8
fffc
fffc
fc7c
f87c
f87c
f87c
f87c
f87c
f87c
f87c
f87c
f87c
ENDCHAR
STARTCHAR oacute
ENCODING 243
SWIDTH 675 0
DWIDTH 18 0
BBX 16 18 1 0
BITMAP
00f8
01e0
03c0
0000
07e0
1ff8
7ffe
7c3e
fc3f
f81f
f81f
f81f
f81f
fc3f
7c3e
7ffe
1ff8
07e0
ENDCHAR
STARTCHAR ocircumflex
ENCODING 244
SWIDTH 675 0
DWIDTH 18 0
BBX 16 18 1 0
BITMAP
03e0
07f0
0e38
0000
07e0
1ff8
7ffe
7c3e
fc3f
f81f
f81f
f81f
f81f
fc3f
7c3e
7ffe
1ff8
07e0
ENDCHAR
STARTCHAR odoubleacute
ENCODING 245
SWIDTH 675 0
DWIDTH 18 0
BBX 16 18 1 0
BITMAP
03dc
0730
0ee0
0000
07e0
1ff8
7ffe
7c3e
fc3f
f81f
f81f
f81f
f81f
fc3f
7c3e
7ffe
1ff8
07e0
ENDCHAR
STARTCHAR odiaeresis
ENCODING 246
SWIDTH 675 0
DWIDTH 18 0
BBX 16 18 1 0
BITMAP
0e70
0e70
0e70
0000
07e0
1ff8
7ffe
7c3e
fc3f
f81f
f81f
f81f
f81f
fc3f
7c3e
7ffe
1ff8
07e0
ENDCHAR
STARTCHAR division
ENCODING 247
SWIDTH 687 0
DWIDTH 18 0
BBX 15 16 1 0
BITMAP
0380
0380
0380
0000
0000
0000
fffe
fffe
fffe
0000
0000
0000
0000
0380
0380
0380
ENDCHAR
STARTCHAR rcaron
ENCODING 248
SWIDTH 500 0
DWIDTH 13 0
BBX 10 18 2 0
BITMAP
e380
7f00
3e00
0000
f9c0
fbc0
ffc0
ffc0
fc00
f800
f800
f800
f800
f800
f800
f800
f800
f800
ENDCHAR
STARTCHAR uring
ENCODING 249
SWIDTH 693 0
DWIDTH 18 0
BBX 14 19 2 0
BITMAP
0300
0480
0480
0300
0000
f87c
f87c
f87c
f87c
f87c
f87c
f87c
f87c
f87c
f87c
f8fc
fffc
7f7c
3e7c
ENDCHAR
STARTCHAR uacute
ENCODING 250
SWIDTH 693 0
DWIDTH 18 0
BBX 14 18 2 0
BITMAP
01f0
03c0
0780
0000
f87c
f87c
f87c
f87c
f87c
f87c
f87c
f87c
f87c
f87c
f8fc
fffc
7f7c
3e7c
ENDCHAR
STARTCHAR udoubleacute
ENCODING 251
SWIDTH 693 0
DWIDTH 18 0
BBX 14 18 2 0
BITMAP
07b8
0e60
1dc0
0000
f87c
f87c
f87c
f87c
f87c
f87c
f87c
f87c
f87c
f87c
f8fc
fffc
7f7c
3e7c
ENDCHAR
STARTCHAR udiaeresis
ENCODING 252
SWIDTH 693 0
DWIDTH 18 0
BBX 14 18 2 0
BITMAP
1ce0
1ce0
1ce0
0000
f87c
f87c
f87c
f87c
f87c
f87c
f87c
f87c
f87c
f87c
f8fc
fffc
7f7c
3e7c
ENDCHAR
STARTCHAR yacute
ENCODING 253
SWIDTH 645 0
DWIDTH 17 0
BBX 16 23 0 -5
BITMAP
01f0
03c0
0780
0000
fc0f
7c0e
7c1e
7e1c
3e3c
3f38
1f78
1f70
1ff0
0fe0
0fe0
07c0
07c0
0780
0780
0f00
0f00
1f00
3e00
ENDCHAR
STARTCHAR tcedilla
ENCODING 254
SWIDTH 436 0
DWIDTH 11 0
BBX 9 23 1 -5
BITMAP
1c00
7c00
7c00
7c00
ff80
ff80
ff80
7c00
7c00
7c00
7c00
7c00
7c00
7c00
7c00
7f80
3f80
1f80
0c00
1800
0e00
3e00
3c00
ENDCHAR
STARTCHAR abovedot
ENCODING 255
SWIDTH 675 0
DWIDTH 18 0
BBX 4 3 7 17
BITMAP
f0
f0
f0
ENDCHAR
ENDFONT
